HIERARCHY
ROOT Hips
{
  OFFSET -187.679 86.5976 -156.378
  CHANNELS 6 Xposition Yposition Zposition Zrotation Xrotation Yrotation
  JOINT LeftUpLeg
  {
    OFFSET 8.64259 1.95398 -2.38835
    CHANNELS 3 Zrotation Xrotation Yrotation
    JOINT LeftLeg
    {
      OFFSET 43.7702 0 0
      CHANNELS 3 Zrotation Xrotation Yrotation
      JOINT LeftFoot
      {
        OFFSET 40.6238 0 0
        CHANNELS 3 Zrotation Xrotation Yrotation
        JOINT LeftToeBase
        {
          OFFSET 12.7242 0 0
          CHANNELS 3 Zrotation Xrotation Yrotation
          End Site
          {
            OFFSET 0 0 0
          }
        }
      }
    }
  }
  JOINT RightUpLeg
  {
    OFFSET -8.2249 1.95398 -2.59336
    CHANNELS 3 Zrotation Xrotation Yrotation
    JOINT RightLeg
    {
      OFFSET 43.5653 0 0
      CHANNELS 3 Zrotation Xrotation Yrotation
      JOINT RightFoot
      {
        OFFSET 40.6238 0 0
        CHANNELS 3 Zrotation Xrotation Yrotation
        JOINT RightToeBase
        {
          OFFSET 12.7242 0 0
          CHANNELS 3 Zrotation Xrotation Yrotation
          End Site
          {
            OFFSET 0 0 0
          }
        }
      }
    }
  }
  JOINT Spine
  {
    OFFSET 0.165834 0.87714 6.61349
    CHANNELS 3 Zrotation Xrotation Yrotation
    JOINT Spine1
    {
      OFFSET 7.38963 1.71661e-005 0
      CHANNELS 3 Zrotation Xrotation Yrotation
      JOINT Spine2
      {
        OFFSET 11.9445 1.14441e-005 0
        CHANNELS 3 Zrotation Xrotation Yrotation
        JOINT Spine3
        {
          OFFSET 14.7254 4.19617e-005 0
          CHANNELS 3 Zrotation Xrotation Yrotation
          JOINT Spine4
          {
            OFFSET 10.9679 0 0
            CHANNELS 3 Zrotation Xrotation Yrotation
            JOINT RightShoulder
            {
              OFFSET 2.46616 -1.6653 3.69651
              CHANNELS 3 Zrotation Xrotation Yrotation
              JOINT RightArm
              {
                OFFSET 13.0012 0 0
                CHANNELS 3 Zrotation Xrotation Yrotation
                JOINT RightForeArm
                {
                  OFFSET 28.7848 1.52588e-005 0
                  CHANNELS 3 Zrotation Xrotation Yrotation
                  JOINT RightHand
                  {
                    OFFSET 26.5688 1.52588e-005 0
                    CHANNELS 3 Zrotation Xrotation Yrotation
                    End Site
                    {
                      OFFSET 0 0 0
                    }
                  }
                }
              }
            }
            JOINT LeftShoulder
            {
              OFFSET 2.38034 -1.29275 -3.7523
              CHANNELS 3 Zrotation Xrotation Yrotation
              JOINT LeftArm
              {
                OFFSET 16.3182 6.10352e-005 0
                CHANNELS 3 Zrotation Xrotation Yrotation
                JOINT LeftForeArm
                {
                  OFFSET 27.0901 0 0
                  CHANNELS 3 Zrotation Xrotation Yrotation
                  JOINT LeftHand
                  {
                    OFFSET 24.5451 1.52588e-005 0
                    CHANNELS 3 Zrotation Xrotation Yrotation
                    End Site
                    {
                      OFFSET 0 0 0
                    }
                  }
                }
              }
            }
            JOINT Neck
            {
              OFFSET 5.0226 -0.0266342 0
              CHANNELS 3 Zrotation Xrotation Yrotation
              JOINT Head
              {
                OFFSET 6.69363 2.86102e-005 0
                CHANNELS 3 Zrotation Xrotation Yrotation
                End Site
                {
                  OFFSET 0 0 0
                }
              }
            }
          }
        }
      }
    }
  }
}
MOTION
Frames:	13
Frame Time:	0.0416667
54.0618 102.605 -352.081 -176.466 -84.2545 -179.282 178.049 -11.5942 79.9649 -8.56271 16.7196 15.9661 69.4158 5.01486 0.923889 15.6869 -6.73933 3.17498 163.194 -5.9711 76.5519 -11.987 -4.03269 7.12581 67.3108 -3.10459 1.45289 27.2673 -0.785865 1.84046 0.0753882 7.53349 -89.8558 11.8066 0.217805 0.264479 0.13562 0.229225 0.25463 -22.3994 0.128233 0.317705 -2.38674 0.128245 0.317707 86.7342 -49.3155 -105.787 27.0929 -24.863 -15.7382 -13.0627 -26.0499 -10.3293 -12.8986 0.216188 -7.16352 -89.3548 -46.0445 79.0725 -31.3656 23.1406 -8.01838 21.1378 31.2802 -20.8614 -26.016 3.09358 -19.2972 8.97476 -3.03821 -6.12041 5.69257 -0.954893 9.13307 
54.037 102.611 -352.154 -170.924 -84.4999 -173.444 178.216 -11.1183 80.2951 -8.74574 16.1131 15.7563 69.6172 5.04658 0.727054 17.2543 -7.19435 5.67913 163.566 -5.70146 77.0381 -11.8574 -4.28016 6.9631 67.2076 -3.10582 1.17121 27.7422 -1.2548 3.68377 0.138355 7.5163 -89.8629 11.8411 0.339697 0.237391 0.1702 0.349818 0.22221 -22.365 0.252646 0.328513 -2.35238 0.252644 0.328504 87.4372 -49.3411 -104.707 26.6319 -26.014 -16.57 -12.7987 -25.2986 -10.5222 -13.1557 0.181455 -6.80361 -89.3788 -46.0058 79.026 -31.6191 23.6945 -7.99932 19.716 28.63 -19.7652 -28.1182 3.36726 -19.1604 9.03392 -2.87369 -6.43506 5.13976 -0.750048 9.39486 
54.0394 102.625 -352.468 -165.058 -84.9659 -166.764 178.937 -9.49254 81.4849 -10.5232 15.9622 15.1234 70.3525 5.26306 0.727986 15.8807 -7.45419 4.87159 164.232 -5.68455 78.1324 -10.6397 -3.32148 6.85933 65.8652 -2.9545 1.87908 28.3566 -0.772984 2.44035 0.134928 7.48973 -89.9471 11.8941 0.29323 0.0738638 0.223187 0.296195 0.0608844 -22.3122 0.257471 0.158583 -2.2995 0.257468 0.158574 86.54 -49.4274 -106.045 25.3092 -27.3409 -16.4672 -12.847 -23.646 -11.332 -13.0918 0.114812 -6.19908 -89.4614 -46.6922 79.0507 -30.766 22.2904 -7.98724 18.8767 25.0946 -19.1166 -23.8129 2.03612 -15.35 9.50411 -2.81374 -5.91264 4.61809 -0.830233 9.27958 
54.1814 102.657 -352.884 -157.904 -85.4486 -158.678 -179.926 -6.84878 83.0505 -13.9205 15.9826 13.8735 71.9558 6.01512 1.33843 14.9989 -7.29132 3.65963 165.313 -5.60334 79.6021 -9.61067 -1.89638 6.38706 64.7862 -2.94928 2.37379 29.2127 -0.800014 3.07021 0.220577 7.46945 -90.0626 11.9356 0.409141 -0.168781 0.26472 0.401313 -0.186628 -22.271 0.440942 -0.0380114 -2.25832 0.440952 -0.0380069 84.8769 -49.4258 -108.576 24.5677 -27.0528 -14.3408 -14.2792 -20.8967 -14.0047 -12.4771 0.0551853 -5.71063 -89.9328 -47.0337 78.3988 -30.3618 21.7702 -8.02943 16.1165 18.4018 -17.1729 -21.246 1.52841 -13.9597 8.82558 -2.4353 -5.13541 5.96144 -0.627538 8.34245 
54.6728 102.648 -353.171 -157.643 -86.0811 -157.852 -178.982 -4.09962 84.213 -17.6074 16.2378 12.4546 73.8328 6.73954 1.02035 14.8978 -7.40105 3.78934 166.574 -5.42437 80.9171 -9.0881 -0.31358 5.34849 64.3217 -3.13134 2.25688 29.8908 -0.435106 2.19488 0.217446 7.46068 -90.1236 11.953 0.374139 -0.286949 0.282052 0.361153 -0.303145 -22.2534 0.443081 -0.161234 -2.24079 0.443076 -0.161247 84.7734 -49.2079 -108.803 24.5012 -26.5261 -13.2076 -15.8506 -20.683 -16.8186 -10.9845 -0.149028 -3.55695 -89.5972 -47.1426 78.9406 -30.642 26.2981 -7.53279 11.7273 3.83323 -15.6255 -24.8477 2.72213 -18.2559 7.28084 -1.51063 -3.99707 8.13053 -0.0953654 5.95497 
55.3613 102.514 -353.171 -156.505 -86.1648 -155.778 -177.118 -1.3408 86.1103 -22.5176 17.7753 10.2275 75.9136 7.79981 1.35658 13.6111 -7.66584 3.12019 168.32 -5.66097 82.8461 -9.16277 1.42081 3.55743 64.4553 -3.58167 2.15886 30.2491 -0.302935 1.94287 0.318076 7.52906 -90.302 11.8168 0.490555 -0.654377 0.145784 0.461288 -0.675339 -22.3893 0.664545 -0.476694 -2.37667 0.664548 -0.47669 84.484 -49.0437 -109.296 23.8598 -24.8412 -12.0977 -17.0211 -20.801 -18.4235 -10.5156 -0.107514 -3.96826 -89.8749 -47.6158 78.6197 -29.7038 23.4748 -7.93896 10.3347 -1.48828 -14.5311 -15.6271 0.758907 -11.2413 8.93974 -2.58533 -3.87491 5.64033 -1.13392 7.43014 
56.1687 101.814 -352.947 -150.662 -86.4652 -149.432 -175.764 1.85246 86.9428 -28.2431 18.3339 8.52482 78.9047 8.96242 1.38969 12.6944 -7.54555 2.05788 171.178 -0.420007 84.749 -18.2452 4.38082 0.908182 67.2044 -4.7911 1.68334 33.9581 0.510976 1.20579 0.336075 7.5779 -90.3936 11.7192 0.483684 -0.835435 0.0480468 0.446449 -0.855908 -22.4864 0.7124 -0.651451 -2.47374 0.712405 -0.651446 83.8235 -49.7521 -110.054 21.1112 -25.277 -13.0904 -14.8959 -16.0627 -15.2355 -12.1882 -0.000370708 -5.18645 -90.3481 -47.5313 77.8753 -29.068 21.9044 -7.95332 8.7501 -6.74613 -13.1304 -6.28871 -0.0405484 -6.38569 8.49909 -2.01224 -3.84301 7.29283 -0.639575 5.6381 
56.6501 101.132 -352.135 -125.105 -85.5452 -123.286 -174.595 3.58072 88.1638 -31.5045 17.1121 6.96751 81.3574 9.54668 0.763151 12.824 -7.52533 2.13284 175.708 8.32207 87.1365 -35.0932 16.5308 -1.26256 72.0421 -6.12045 8.49791 28.1521 -1.83517 5.64638 0.341212 7.59389 -90.3387 11.6875 0.519873 -0.729372 0.0164813 0.487267 -0.751562 -22.5186 0.715038 -0.53942 -2.50591 0.715042 -0.539428 82.6788 -52.1261 -110.938 19.9389 -22.5462 -11.7398 -15.7235 -12.855 -16.7345 -12.3584 -0.000628791 -5.16385 -90.1764 -45.4531 77.649 -29.6782 23.0982 -6.85545 7.29263 -11.9554 -11.2693 -4.88945 -0.0634739 -5.37308 7.63538 -1.22087 -6.36183 9.41724 0.632614 4.88248 
57.0569 101.233 -350.481 -114.953 -83.5797 -113.253 -174.913 1.13734 87.1537 -29.0811 14.6408 6.88228 80.9218 9.29919 0.71344 13.1648 -7.11952 1.6342 177.376 16.7817 90.3125 -44.5369 7.18131 -1.91929 69.2333 -4.53745 2.33606 29.6081 -0.73136 3.07964 0.128398 7.72043 -90.3126 11.4329 0.109564 -0.633666 -0.238191 0.0815778 -0.63788 -22.7723 0.294949 -0.571437 -2.75967 0.29493 -0.571459 84.9969 -51.2786 -107.804 22.4681 -20.8944 -11.5672 -17.1396 -14.5981 -18.7312 -11.103 -0.0241382 -4.93344 -89.9953 -45.5605 77.9595 -28.1123 23.9787 -7.36118 7.7315 -8.44819 -9.89007 -3.40938 -0.0874239 -4.11251 8.30127 0.271236 -5.72922 9.00668 1.82657 3.44313 
57.2756 101.009 -347.969 -108.263 -82.0504 -107.327 -175.914 -1.72184 85.2433 -26.351 11.2625 7.34902 81.2551 9.42978 0.667777 13.7501 -6.9182 1.75049 178.174 21.1363 92.7675 -38.6334 0.0566467 -0.966864 67.1104 -3.39733 0.42592 30.3045 -0.453532 2.51361 -0.130107 7.74688 -90.1924 11.3795 -0.348523 -0.348067 -0.291447 -0.363523 -0.332396 -22.8264 -0.227812 -0.43672 -2.8138 -0.227814 -0.436726 84.5144 -51.5368 -108.437 23.5421 -18.9408 -8.45869 -19.2492 -16.917 -21.1376 -9.03105 -0.1888 -2.81268 -90.2794 -44.5916 77.2787 -27.9329 26.3343 -8.28034 7.64348 -10.8205 -8.59798 -5.66631 -0.110714 -3.4966 7.88551 1.33418 -7.10363 8.54902 3.16028 3.92996 
57.0539 100.555 -344.277 -104.118 -80.7662 -103.462 -175.942 -5.43255 84.6498 -23.2406 9.44934 7.11444 82.1091 9.88127 0.398661 14.9914 -6.77863 2.61072 178.421 21.8699 95.9429 -24.5941 1.69868 1.37358 66.9343 -2.99032 0.217908 26.7739 -1.21069 2.95557 -0.320065 7.81931 -90.0553 11.2346 -0.66267 -0.0450296 -0.436122 -0.664009 -0.0158287 -22.9726 -0.618499 -0.242124 -2.95992 -0.61849 -0.242116 84.2858 -52.1724 -108.571 24.9622 -17.5126 -5.92744 -18.4738 -14.6146 -20.5565 -8.58992 -0.0351429 -4.59872 -90.333 -43.7514 76.9831 -25.1652 23.9014 -12.2188 7.8732 -8.41618 -9.63062 -0.463112 -0.0484738 -2.40672 8.16954 2.03984 -8.9107 8.9499 4.24515 3.84504 
56.8824 99.5505 -338.913 -104.34 -83.4108 -102.731 -174.972 -9.03531 86.4779 -22.3188 12.2229 7.60914 84.214 10.8701 0.0984092 15.7607 -7.17295 4.1513 179.213 22.4584 98.2878 -15.5646 10.6825 3.40499 64.6197 -2.44906 -0.158885 23.69 -1.64413 2.54142 -0.684418 7.74504 -90.2153 11.3842 -1.46216 -0.279183 -0.285963 -1.47303 -0.214554 -22.8263 -1.31066 -0.705786 -2.81366 -1.31066 -0.705782 83.941 -52.3563 -109.017 26.1892 -16.9652 -2.30523 -17.7056 -14.3592 -18.1455 -7.50501 -0.00546618 -5.31288 -90.5209 -43.99 76.7439 -23.7142 22.6863 -16.902 8.37025 -7.49257 -8.94275 -0.533579 -0.0512988 -2.04265 7.59795 1.84996 -9.0845 8.40656 4.02775 3.73548 
57.1863 98.2395 -330.302 -134.511 -82.6726 -132.17 -173.87 -22.484 86.9667 -13.6335 13.5579 8.81329 82.1411 10.9608 1.04237 19.5006 -5.45029 4.15457 178.412 22.0184 99.1764 -26.6973 9.20505 3.83594 65.7721 -1.58612 2.38249 23.6616 -2.25693 4.33608 -0.740764 8.0561 -90.452 10.7563 -1.68348 -0.74328 -0.913708 -1.71456 -0.668457 -23.4535 -1.38227 -1.21491 -3.44087 -1.38227 -1.21493 84.7867 -51.9722 -107.899 26.3001 -16.9024 1.27252 -16.814 -11.2814 -16.5192 0.10944 -0.0250046 -4.66613 -90.3155 -44.3172 77.1529 -25.1479 23.2992 -20.4713 8.49403 -7.30617 -9.99579 0.182297 -0.0386195 -2.0296 7.96932 1.70398 -7.43869 7.55504 3.49899 3.2573 
